HIERARCHY
ROOT Hips
{
	OFFSET 0.00 0.00 0.00
	CHANNELS 6 Xposition Yposition Zposition Xrotation Yrotation Zrotation
	JOINT Spine
	{
		OFFSET 0.00000 5.89385 0.00000
		CHANNELS 3 Xrotation Yrotation Zrotation
		JOINT Head
		{
			OFFSET 0.00000 16.44715 0.00000
			CHANNELS 3 Xrotation Yrotation Zrotation
			End Site
			{
				OFFSET 0.00000 4.52755 0.00000
			}
		}
		JOINT LeftShoulder
		{
			OFFSET 0.00000 10.90038 0.00000
			CHANNELS 3 Xrotation Yrotation Zrotation
			JOINT LeftArm
			{
				OFFSET 8.21946 0.00000 0.00000
				CHANNELS 3 Xrotation Yrotation Zrotation
				JOINT LeftForeArm
				{
					OFFSET 11.09494 0.00000 0.00000
					CHANNELS 3 Yrotation Zrotation Xrotation
					JOINT LeftHand
					{
						OFFSET 9.10388 0.00000 0.00000
						CHANNELS 3 Xrotation Yrotation Zrotation
						JOINT LeftHandThumb1
						{
							OFFSET 0.00000 0.00000 0.00000
							CHANNELS 3 Xrotation Zrotation Yrotation
							End Site
							{
								OFFSET 0.00000 0.00000 3.93700
							}
						}
						End Site
						{
							OFFSET 3.93700 0.00000 0.00000
						}
					}
				}
			}
		}
		JOINT RightShoulder
		{
			OFFSET 0.00000 10.90038 0.00000
			CHANNELS 3 Xrotation Yrotation Zrotation
			JOINT RightArm
			{
				OFFSET -8.21946 0.00000 0.00000
				CHANNELS 3 Xrotation Yrotation Zrotation
				JOINT RightForeArm
				{
					OFFSET -11.09494 0.00000 0.00000
					CHANNELS 3 Yrotation Zrotation Xrotation
					JOINT RightHand
					{
						OFFSET -9.10388 0.00000 0.00000
						CHANNELS 3 Xrotation Yrotation Zrotation
						JOINT RightHandThumb1
						{
							OFFSET 0.00000 0.00000 0.00000
							CHANNELS 3 Xrotation Zrotation Yrotation
							End Site
							{
								OFFSET 0.00000 0.00000 3.93700
							}
						}
						End Site
						{
							OFFSET -3.93700 0.00000 0.00000
						}
					}
				}
			}
		}
	}
	JOINT LeftUpLeg
	{
		OFFSET 3.69794 0.00000 0.00000
		CHANNELS 3 Xrotation Yrotation Zrotation
		JOINT LeftLeg
		{
			OFFSET 0.00000 -16.18147 0.00000
			CHANNELS 3 Xrotation Yrotation Zrotation
			JOINT LeftFoot
			{
				OFFSET 0.00000 -16.50139 0.00000
				CHANNELS 3 Xrotation Yrotation Zrotation
				JOINT LeftToeBase
				{
					OFFSET 0.00000 -1.65857 6.18989
					CHANNELS 3 Xrotation Yrotation Zrotation
					End Site
					{
						OFFSET 0.00000 0.00000 2.95275
					}
				}
			}
		}
	}
	JOINT RightUpLeg
	{
		OFFSET -3.69794 0.00000 0.00000
		CHANNELS 3 Xrotation Yrotation Zrotation
		JOINT RightLeg
		{
			OFFSET 0.00000 -16.18147 0.00000
			CHANNELS 3 Xrotation Yrotation Zrotation
			JOINT RightFoot
			{
				OFFSET 0.00000 -16.50139 0.00000
				CHANNELS 3 Xrotation Yrotation Zrotation
				JOINT RightToeBase
				{
					OFFSET 0.00000 -1.65857 6.18989
					CHANNELS 3 Xrotation Yrotation Zrotation
					End Site
					{
						OFFSET 0.00000 0.00000 2.95275
					}
				}
			}
		}
	}
}
MOTION
Frames: 15
Frame Time: 0.008333
 12.3584 38.7923 3.3266 152.3834 -32.3324 122.0590 -16.6403 2.3990 17.7269 -4.6038 2.8570 21.5846 15.3948 9.8410 20.3599 -13.8939 -16.2992 -77.0023 -34.9184 -0.0000 14.4674 1.9608 16.3922 -6.9171 33.1476 -0.0000 26.2537 56.2320 -17.5121 17.0463 -44.5178 29.9754 73.1140 32.3970 -0.0000 -54.2460 0.2976 -0.9722 17.0198 32.8623 0.0000 -24.3270 -61.3922 25.6098 39.3984 15.5361 -0.0000 0.0000 -11.8725 23.7787 1.5953 0.0481 0.0000 -0.0000 -105.0776 -2.6405 -33.4242 150.7221 -0.0000 -0.0000 5.4089 2.1296 16.0083 -7.7633 0.0000 -0.0000
 12.3325 38.7758 3.3434 152.4766 -32.2182 122.1737 -16.7228 2.3020 17.7344 -4.6683 3.0110 21.5305 15.2695 9.7415 20.4789 -13.9788 -16.7859 -77.7203 -35.3076 -0.0000 14.7122 1.9989 16.4409 -7.0301 33.1476 -0.0000 26.2537 56.2670 -17.5895 17.0195 -44.4102 29.9915 73.0418 32.4007 -0.0000 -54.1796 0.3074 -1.0075 16.9696 32.8623 0.0000 -24.3270 -61.7408 25.5350 39.5929 16.1597 -0.0000 0.0000 -11.5897 23.3615 1.8194 3.1571 0.0000 -0.0000 -104.7105 -2.3459 -33.5129 150.7466 -0.0000 0.0000 5.7574 2.6113 16.1361 -7.7838 0.0000 0.0000
 12.3028 38.7571 3.3621 152.6134 -32.1136 122.3226 -16.7550 2.2041 17.7642 -4.7835 3.1810 21.4651 15.1551 9.6731 20.5738 -14.0112 -17.2707 -78.4436 -35.8326 -0.0000 14.9779 2.0320 16.4315 -7.1493 33.1476 -0.0000 26.2537 56.2787 -17.6687 16.9779 -44.3780 29.9131 73.0180 32.3519 -0.0000 -53.9649 0.3667 -1.2095 16.8692 32.8623 0.0000 -24.3270 -62.1403 25.4719 39.8453 16.9040 0.0000 0.0000 -11.4516 23.1065 2.0750 4.9085 -0.0000 0.0000 -104.3348 -2.0538 -33.5557 150.7661 0.0000 0.0000 6.0665 3.0951 16.2557 -7.9502 -0.0000 0.0000
 12.2688 38.7331 3.3788 152.9255 -32.0460 122.6282 -16.6560 2.2503 17.7578 -4.9641 3.3558 21.4261 15.0865 9.6548 20.6438 -14.0826 -17.7722 -79.1509 -36.5001 -0.0000 15.1693 2.0825 16.4614 -7.3122 33.1476 -0.0000 26.2537 56.2674 -17.7329 16.9586 -44.3066 29.9551 72.9619 32.3321 -0.0000 -53.8857 0.3545 -1.1787 16.7393 32.8623 0.0000 -24.3270 -62.4809 25.5115 40.1934 17.7090 0.0000 -0.0000 -11.4569 22.9579 2.4823 6.1573 0.0000 -0.0000 -103.9089 -1.7176 -33.4676 150.7975 -0.0000 0.0000 6.3416 3.5400 16.2837 -7.9970 -0.0000 -0.0000
 12.2284 38.7034 3.3928 153.3674 -32.1359 123.0207 -16.3140 2.2822 17.7731 -5.2162 3.6015 21.3524 15.0642 9.6443 20.6462 -14.1246 -18.2732 -79.8183 -37.3076 -0.0000 15.3171 2.0427 16.3594 -7.2170 33.1476 -0.0000 26.2537 56.1696 -17.7928 16.8600 -44.2633 29.9312 72.9671 32.2927 -0.0000 -53.7813 0.3622 -1.2025 16.7659 32.8623 0.0000 -24.3270 -62.5879 25.5562 40.5088 18.5363 -0.0000 0.0000 -11.4984 22.5789 2.9402 6.0924 -0.0000 0.0000 -103.3243 -1.3751 -33.3907 150.8452 0.0000 0.0000 6.5399 3.9370 16.1872 -8.0426 -0.0000 -0.0000
 12.1838 38.6730 3.4070 153.8036 -32.2546 123.4145 -15.9531 2.2449 17.7968 -5.3852 3.8838 21.2616 15.0886 9.6720 20.6111 -14.1469 -18.7986 -80.4644 -38.1717 -0.0000 15.5184 2.0365 16.3221 -7.2113 33.1476 -0.0000 26.2537 56.0615 -17.8351 16.7332 -44.2456 29.8809 72.9935 32.2502 -0.0000 -53.6363 0.3708 -1.2289 16.7938 32.8623 0.0000 -24.3270 -62.5425 25.5572 40.7270 19.2748 0.0000 -0.0000 -11.5037 22.3029 3.4584 5.4457 0.0000 -0.0000 -102.7832 -1.0689 -33.3551 150.9010 -0.0000 -0.0000 6.7675 4.1524 16.0072 -8.0765 -0.0000 -0.0000
 12.1417 38.6492 3.4255 154.1384 -32.2381 123.7723 -15.7867 2.1719 17.8138 -5.4754 4.2289 21.1388 15.1932 9.7482 20.5255 -14.1855 -19.3724 -81.0577 -39.0498 -0.0000 15.7151 2.0480 16.2788 -7.2701 33.1476 -0.0000 26.2537 56.0368 -17.8818 16.6166 -44.3094 29.9095 73.0676 32.1685 -0.0000 -53.5564 0.3526 -1.1664 16.8191 32.8623 0.0000 -24.3270 -62.4545 25.4621 40.8200 19.8964 0.0000 0.0000 -11.4391 22.2122 3.9911 4.7129 -0.0000 -0.0000 -102.4688 -0.8328 -33.2983 150.9420 -0.0000 -0.0000 6.9062 4.1744 15.8447 -7.9537 0.0000 -0.0000
 12.0917 38.6198 3.4401 154.6200 -32.4310 124.2641 -15.3274 2.0995 17.7930 -5.5681 4.5713 20.9956 15.2621 9.8080 20.3843 -14.1909 -20.0233 -81.5782 -39.9025 -0.0000 15.8866 2.0173 16.1731 -7.2071 33.1476 -0.0000 26.2537 55.9271 -17.8774 16.4526 -44.3612 29.8255 73.1597 32.1322 -0.0000 -53.4113 0.3489 -1.1596 16.7464 32.8623 0.0000 -24.3270 -61.9438 25.3775 40.7969 20.4367 -0.0000 -0.0000 -11.5507 22.2370 4.3423 4.1858 0.0000 -0.0000 -101.9571 -0.5723 -33.2930 150.9947 -0.0000 0.0000 7.0223 4.0380 15.6569 -7.8543 0.0000 0.0000
 12.0386 38.5962 3.4560 155.0447 -32.5418 124.7479 -14.9997 2.0170 17.7599 -5.5634 4.9038 20.8401 15.4022 9.9241 20.2087 -14.2718 -20.7329 -82.0856 -40.6713 -0.0000 16.0726 1.9772 15.9532 -7.1591 33.1476 -0.0000 26.2537 55.8578 -17.8951 16.3642 -44.4534 29.7460 73.2574 32.0959 -0.0000 -53.2321 0.3812 -1.2708 16.6982 32.8623 0.0000 -24.3270 -61.3682 25.2690 40.6898 20.8648 -0.0000 -0.0000 -11.6496 22.3290 4.6708 3.7611 0.0000 -0.0000 -101.6039 -0.3826 -33.2922 151.0463 0.0000 0.0000 7.0883 3.7475 15.4700 -7.8416 -0.0000 0.0000
 11.9920 38.5854 3.4809 155.2759 -32.4638 125.1082 -14.9814 1.8766 17.7560 -5.4227 5.2701 20.6398 15.5665 10.0511 20.0129 -14.3449 -21.4858 -82.5661 -41.3387 -0.0000 16.2514 1.9426 15.5561 -7.2082 33.1476 -0.0000 26.2537 55.8857 -17.9138 16.3008 -44.5955 29.7076 73.3706 32.0379 -0.0000 -53.1181 0.3701 -1.2339 16.6975 32.8623 0.0000 -24.3270 -60.9256 25.0372 40.5107 21.2599 -0.0000 0.0000 -11.6370 22.4662 4.6820 3.3326 0.0000 0.0000 -101.5529 -0.3211 -33.2842 151.0516 -0.0000 0.0000 7.0318 3.3488 15.4209 -7.7655 0.0000 -0.0000
 11.9458 38.5820 3.5071 155.4119 -32.2967 125.4320 -15.1312 1.7271 17.7309 -5.2078 5.6032 20.4538 15.7025 10.1515 19.8399 -14.3384 -22.2334 -83.0244 -41.9412 -0.0000 16.4802 1.9275 15.5689 -7.1468 33.1476 -0.0000 26.2537 55.9392 -17.9407 16.2915 -44.7329 29.7171 73.4768 31.9519 -0.0000 -53.0286 0.3993 -1.3262 16.7590 32.8623 0.0000 -24.3270 -60.4956 24.7604 40.2790 21.6039 -0.0000 -0.0000 -11.5742 22.5609 4.6672 3.0375 -0.0000 0.0000 -101.6333 -0.3011 -33.2816 151.0494 0.0000 -0.0000 6.8724 3.0288 15.2921 -7.7560 -0.0000 0.0000
 11.9008 38.5875 3.5359 155.4921 -32.0179 125.7265 -15.4454 1.6074 17.6997 -4.8846 5.8805 20.2924 15.8490 10.2945 19.6997 -14.4035 -23.0004 -83.5418 -42.4753 -0.0000 16.5688 1.9150 15.8442 -6.9820 33.1476 -0.0000 26.2537 55.9946 -17.9439 16.2950 -44.8221 29.6981 73.5718 31.8705 -0.0000 -52.9628 0.4353 -1.4416 16.8032 32.8623 0.0000 -24.3270 -60.1287 24.4368 40.0610 21.9447 -0.0000 -0.0000 -11.4425 22.6013 4.4625 2.7718 -0.0000 -0.0000 -101.8651 -0.3739 -33.2207 151.0284 -0.0000 -0.0000 6.5822 2.7627 15.1652 -7.6370 0.0000 0.0000
 11.8599 38.6048 3.5701 155.3632 -31.6019 125.8537 -16.0413 1.4071 17.7263 -4.4712 6.1779 20.1104 16.0270 10.4488 19.5490 -14.4302 -23.7553 -84.0019 -42.9249 -0.0000 16.8137 2.0044 15.4548 -7.4820 33.1476 -0.0000 26.2537 56.0559 -17.9986 16.2889 -44.8563 29.7300 73.6885 31.7649 -0.0000 -52.9284 0.4195 -1.3938 16.7510 32.8623 0.0000 -24.3270 -59.8804 23.9057 39.7833 22.3431 -0.0000 0.0000 -11.2669 22.5904 4.0734 2.5484 0.0000 -0.0000 -102.3519 -0.5920 -33.2046 150.9503 0.0000 -0.0000 6.2785 2.4391 15.2998 -7.5588 0.0000 -0.0000
 11.8219 38.6312 3.6095 155.1205 -31.0369 125.9293 -16.8787 1.2582 17.7426 -3.9948 6.4044 19.9427 16.2055 10.5816 19.4694 -14.4625 -24.4657 -84.5476 -43.3014 -0.0000 16.8438 2.0091 15.6068 -7.4289 33.1476 -0.0000 26.2537 56.2084 -18.0674 16.3491 -44.9213 29.7739 73.8208 31.6602 -0.0000 -52.9513 0.4400 -1.4645 16.7241 32.8623 0.0000 -24.3270 -59.8264 23.3644 39.5435 22.7663 -0.0000 0.0000 -10.9912 22.3992 3.6572 2.3206 0.0000 0.0000 -103.0038 -0.8118 -33.1311 150.8731 0.0000 -0.0000 5.9084 2.3748 15.3923 -7.4898 -0.0000 0.0000
 11.7867 38.6627 3.6508 154.8183 -30.3745 125.9665 -17.8701 1.1282 17.7736 -3.4703 6.6348 19.7710 16.4175 10.7028 19.4075 -14.5012 -25.1323 -85.0655 -43.5756 -0.0000 16.9155 2.0613 15.4729 -7.6834 33.1476 -0.0000 26.2537 56.2887 -18.1615 16.3266 -44.8894 29.7081 74.0097 31.5797 -0.0000 -52.8929 0.4440 -1.4884 16.6118 32.8623 0.0000 -24.3270 -59.8949 22.7843 39.3632 23.2326 0.0000 -0.0000 -10.6734 22.0251 3.1205 2.1627 0.0000 0.0000 -103.8169 -1.1011 -33.0175 150.7393 0.0000 0.0000 5.6600 2.3084 15.5696 -7.4909 0.0000 -0.0000
